HIERARCHY
ROOT Hips
{
	OFFSET 0.00000 0.00000 0.00000
	CHANNELS 6 Xposition Yposition Zposition Zrotation Yrotation Xrotation 
	JOINT LHipJoint
	{
		OFFSET 0 0 0
		CHANNELS 3 Zrotation Yrotation Xrotation
		JOINT LeftUpLeg
		{
			OFFSET 1.54859 -1.61379 0.86856
			CHANNELS 3 Zrotation Yrotation Xrotation
			JOINT LeftLeg
			{
				OFFSET 2.25087 -6.18423 0.00000
				CHANNELS 3 Zrotation Yrotation Xrotation
				JOINT LeftFoot
				{
					OFFSET 2.40328 -6.60297 0.00000
					CHANNELS 3 Zrotation Yrotation Xrotation
					JOINT LeftToeBase
					{
						OFFSET 0.17435 -0.47901 2.02453
						CHANNELS 3 Zrotation Yrotation Xrotation
						End Site
						{
							OFFSET 0.00000 -0.00000 1.04844
						}
					}
				}
			}
		}
	}
	JOINT RHipJoint
	{
		OFFSET 0 0 0
		CHANNELS 3 Zrotation Yrotation Xrotation
		JOINT RightUpLeg
		{
			OFFSET -1.54669 -1.61379 0.86856
			CHANNELS 3 Zrotation Yrotation Xrotation
			JOINT RightLeg
			{
				OFFSET -2.28132 -6.26789 0.00000
				CHANNELS 3 Zrotation Yrotation Xrotation
				JOINT RightFoot
				{
					OFFSET -2.51636 -6.91365 0.00000
					CHANNELS 3 Zrotation Yrotation Xrotation
					JOINT RightToeBase
					{
						OFFSET -0.15124 -0.41552 2.21090
						CHANNELS 3 Zrotation Yrotation Xrotation
						End Site
						{
							OFFSET -0.00000 -0.00000 1.13399
						}
					}
				}
			}
		}
	}
	JOINT LowerBack
	{
		OFFSET 0 0 0
		CHANNELS 3 Zrotation Yrotation Xrotation
		JOINT Spine
		{
			OFFSET -0.04287 2.26161 -0.25690
			CHANNELS 3 Zrotation Yrotation Xrotation
			JOINT Spine1
			{
				OFFSET 0.02248 2.28395 -0.10140
				CHANNELS 3 Zrotation Yrotation Xrotation
				JOINT Neck
				{
					OFFSET 0 0 0
					CHANNELS 3 Zrotation Yrotation Xrotation
					JOINT Neck1
					{
						OFFSET -0.11644 1.38496 0.11345
						CHANNELS 3 Zrotation Yrotation Xrotation
						JOINT Head
						{
							OFFSET 0.29383 1.36600 0.06642
							CHANNELS 3 Zrotation Yrotation Xrotation
							End Site
							{
								OFFSET 0.11075 1.41395 -0.00294
							}
						}
					}
				}
				JOINT LeftShoulder
				{
					OFFSET 0 0 0
					CHANNELS 3 Zrotation Yrotation Xrotation
					JOINT LeftArm
					{
						OFFSET 3.51628 0.59542 -0.30346
						CHANNELS 3 Zrotation Yrotation Xrotation
						JOINT LeftForeArm
						{
							OFFSET 4.76405 -0.00000 0.00000
							CHANNELS 3 Zrotation Yrotation Xrotation
							JOINT LeftHand
							{
								OFFSET 3.13759 -0.00000 -0.00000
								CHANNELS 3 Zrotation Yrotation Xrotation
								JOINT LeftFingerBase
								{
									OFFSET 0 0 0
									CHANNELS 3 Zrotation Yrotation Xrotation
									JOINT LeftHandIndex1
									{
										OFFSET 0.73226 -0.00000 -0.00000
										CHANNELS 3 Zrotation Yrotation Xrotation
										End Site
										{
											OFFSET 0.59037 -0.00000 -0.00000
										}
									}
								}
								JOINT LThumb
								{
									OFFSET 0 0 0
									CHANNELS 3 Zrotation Yrotation Xrotation
									End Site
									{
										OFFSET 0.59938 -0.00000 0.59938
									}
								}
							}
						}
					}
				}
				JOINT RightShoulder
				{
					OFFSET 0 0 0
					CHANNELS 3 Zrotation Yrotation Xrotation
					JOINT RightArm
					{
						OFFSET -3.30990 0.84213 -0.36430
						CHANNELS 3 Zrotation Yrotation Xrotation
						JOINT RightForeArm
						{
							OFFSET -5.10161 -0.00000 -0.00000
							CHANNELS 3 Zrotation Yrotation Xrotation
							JOINT RightHand
							{
								OFFSET -3.23267 -0.00000 -0.00000
								CHANNELS 3 Zrotation Yrotation Xrotation
								JOINT RightFingerBase
								{
									OFFSET 0 0 0
									CHANNELS 3 Zrotation Yrotation Xrotation
									JOINT RightHandIndex1
									{
										OFFSET -0.70200 -0.00000 -0.00000
										CHANNELS 3 Zrotation Yrotation Xrotation
										End Site
										{
											OFFSET -0.56597 -0.00000 -0.00000
										}
									}
								}
								JOINT RThumb
								{
									OFFSET 0 0 0
									CHANNELS 3 Zrotation Yrotation Xrotation
									End Site
									{
										OFFSET -0.57461 -0.00000 0.57461
									}
								}
							}
						}
					}
				}
			}
		}
	}
}
MOTION
Frames: 8
Frame Time: .0083333
-35.1935 12.9273 -7.1793 0 0 0 0 0 0 -21 0 0 0 0 0 0 0 0 0 0 0 0 0 0 21 0 0 0 0 0 0 0 0 0 0 0 0 0 0 0 0 0 0 0 0 0 0 -16 0 0 21 0 0 11 0 0 0 -8 0 0 0 0 0 0 0 0 0 0 0 0 0 0 0 0 0 0 0 0 8 0 0 0 0 0 0 0 0 0 0 0 0 0 0 0 0 0
-35.1935 12.9273 -7.1793 -176.5510 45.3751 176.3610 0.0000 0.0000 0.0000 -20.2660 -8.6778 -53.0966 16.4639 19.6975 79.6108 0.6380 -2.6634 -14.4162 0.0456 -1.3782 -3.7900 0.0000 0.0000 0.0000 14.5455 6.7732 -46.8685 -22.8759 -19.8005 98.4354 -0.7744 -7.3260 -20.8528 -0.0004 -0.1298 0.3567 -16.9139 -1.5631 36.3001 -1.4090 -4.1718 15.3464 8.3475 -1.6619 0.6053 -12.3212 -6.7580 -9.7043 26.2744 -5.1372 -14.0589 10.3645 -1.9854 -1.0441 -0.0000 -0.0000 0.0000 -71.3242 -64.5459 29.8161 13.4621 -21.9605 -2.6236 -0.0000 -0.0000 17.3402 22.3926 22.8439 9.0878 -7.1250 0.0000 -0.0000 -7.0475 54.3372 -1.6231 -0.0000 -0.0000 0.0000 82.3841 5.6401 9.8013 -42.7580 49.6216 -20.5162 0.0000 -0.0000 -16.0410 -45.7028 34.5866 -30.1887 7.1250 -0.0000 -0.0000 -6.7090 14.3881 -8.2141
-34.7553 12.8666 -7.1504 -177.8520 44.1644 175.2000 0.0000 0.0000 0.0000 -20.0454 -9.1388 -52.1527 16.9970 19.7824 81.1892 0.8017 -3.4095 -16.1088 0.0069 -0.5360 -1.4730 0.0000 0.0000 0.0000 10.1209 8.6533 -49.3310 -22.1796 -19.8857 96.3845 -0.5272 -9.0282 -19.8494 -0.2275 3.0704 -8.4748 -16.3281 -1.8392 36.6801 -2.4035 -4.2492 15.4839 7.0100 -1.5270 0.5259 -12.0803 -6.8451 -9.0489 26.5774 -5.1876 -14.5162 10.4529 -2.0669 -1.2630 0.0000 0.0000 0.0000 -67.8673 -65.1456 30.8622 14.9104 -24.0212 -3.1894 -0.0000 -0.0000 15.0525 21.7687 24.7252 9.4826 -7.1250 0.0000 -0.0000 -8.4458 56.1545 -2.3224 0.0000 0.0000 0.0000 84.9728 3.5020 8.1089 -44.1522 50.3463 -21.5840 0.0000 -0.0000 -15.9331 -46.8402 33.9945 -30.8048 7.1250 -0.0000 -0.0000 -7.4820 14.2823 -9.1640
-34.3394 12.8217 -7.1321 -179.8970 42.8824 173.9540 0.0000 0.0000 0.0000 -20.5747 -10.2859 -51.1415 17.3392 19.8294 82.1991 0.9642 -2.9898 -17.7936 0.0763 -1.7817 -4.9027 0.0000 0.0000 0.0000 4.7903 10.1190 -51.7588 -21.1302 -19.9693 93.3060 -0.3919 -9.1445 -18.4903 -0.5737 4.8507 -13.4831 -15.7518 -2.1732 36.7121 -3.6429 -4.3897 15.4863 5.4460 -1.4075 0.3992 -11.4895 -6.9456 -8.7349 26.5532 -5.3425 -14.6185 10.3303 -2.1791 -1.3398 0.0000 -0.0000 0.0000 -63.6076 -65.2957 32.8920 16.7586 -26.5384 -3.9789 -0.0000 -0.0000 11.4811 21.1997 27.7179 10.2265 -7.1250 0.0000 -0.0000 -10.5168 59.0741 -3.6420 0.0000 -0.0000 0.0000 87.8478 1.4423 6.1840 -45.6498 51.0829 -22.7432 0.0000 -0.0000 -16.2640 -47.3443 33.4197 -30.8705 7.1250 -0.0000 -0.0000 -7.9255 13.8931 -9.6770
-33.9428 12.7944 -7.1020 -180.6330 41.2729 173.7860 0.0000 0.0000 0.0000 -20.0023 -11.9052 -50.3255 17.6566 19.8678 83.1337 1.1147 -2.8479 -19.2107 0.3500 -3.8012 -10.5182 0.0000 0.0000 0.0000 0.6028 11.1500 -53.6273 -19.7832 -19.9989 89.3662 -0.2881 -8.7604 -16.8463 -1.0138 6.4060 -17.9672 -15.0361 -3.0478 37.3065 -4.0335 -5.4404 15.0807 5.0020 -1.8032 -0.2215 -12.6366 -6.5468 -8.7846 26.1805 -4.9064 -13.9855 10.4231 -1.9023 -1.2200 0.0000 -0.0000 0.0000 -58.6060 -64.0469 31.0637 18.6651 -29.0004 -4.8674 -0.0000 -0.0000 8.4705 20.4174 30.2949 10.6350 -7.1250 0.0000 -0.0000 -12.9692 61.4552 -5.2448 0.0000 -0.0000 0.0000 88.5731 -0.3807 6.4934 -46.8369 51.6373 -23.6705 0.0000 -0.0000 -17.7822 -47.0857 32.9971 -30.3601 7.1250 -0.0000 -0.0000 -7.9257 13.2965 -9.6166
-33.5354 12.7765 -7.0534 -180.9920 40.4806 173.7170 0.0000 0.0000 0.0000 -18.7974 -12.2847 -49.7001 17.9281 19.8968 83.9323 1.2417 -3.8655 -20.1411 0.3665 -3.8889 -10.7643 0.0000 0.0000 0.0000 -2.8837 12.8650 -54.5449 -18.0960 -19.9129 84.4252 -0.2228 -7.3699 -14.4836 -1.4609 7.6390 -21.6229 -14.0177 -3.4405 37.8746 -4.6830 -5.7443 14.7432 3.9389 -1.7878 -0.9546 -12.5553 -6.1817 -8.5860 25.5898 -4.4880 -13.8072 10.2211 -1.6993 -1.3269 0.0000 -0.0000 0.0000 -55.8943 -64.1520 29.5210 19.3733 -29.8799 -5.2155 -0.0000 -0.0000 7.6477 16.8893 27.9765 8.1062 -7.1250 0.0000 -0.0000 -15.3037 58.3557 -5.0760 0.0000 -0.0000 0.0000 89.9993 -2.0560 6.4209 -48.2969 52.2851 -24.8204 0.0000 -0.0000 -19.7994 -46.7021 32.9039 -29.9637 7.1250 -0.0000 -0.0000 -7.7556 13.0073 -9.3778
-33.0872 12.7851 -7.0034 -181.6950 38.8014 173.5370 0.0000 0.0000 0.0000 -17.8337 -13.2237 -48.7242 18.0840 19.9118 84.3900 1.3139 -5.7441 -20.5382 0.2301 -3.0873 -8.5220 0.0000 0.0000 0.0000 -6.5552 13.8947 -54.1401 -16.1211 -19.6354 78.5923 -0.1840 -5.4704 -11.9277 -2.1509 9.1735 -26.3395 -14.6905 -3.2731 38.0115 -3.9100 -5.7719 14.5869 5.0919 -1.8698 -0.9953 -13.2654 -5.6668 -8.3754 24.2386 -3.8251 -14.0364 9.9251 -1.3521 -1.6136 -0.0000 0.0000 0.0000 -54.9458 -63.9250 29.4640 21.0646 -31.9037 -6.0841 -0.0000 -0.0000 5.2794 13.2809 29.3219 6.5936 -7.1250 0.0000 -0.0000 -19.9879 58.8366 -6.9349 -0.0000 0.0000 0.0000 89.2821 -3.2428 6.5068 -49.7741 52.9040 -25.9939 0.0000 -0.0000 -21.9009 -46.1660 33.0292 -29.5843 7.1250 -0.0000 -0.0000 -7.4378 12.8916 -8.9764
-32.6583 12.8450 -6.9530 -181.9390 37.3831 173.4930 0.0000 0.0000 0.0000 -16.6076 -14.0501 -47.4103 18.0793 19.9113 84.3763 1.3321 -7.3225 -20.6331 0.1508 -2.5024 -6.8962 0.0000 0.0000 0.0000 -9.9921 15.7559 -53.1355 -14.0150 -19.1186 72.2503 -0.1302 -3.1941 -8.7636 -2.0143 8.8959 -25.4702 -14.9143 -3.1463 38.1143 -3.2683 -5.6300 14.6183 5.8386 -1.8402 -0.9224 -13.7842 -5.1044 -8.3638 23.0356 -3.0631 -14.2495 9.6438 -0.9360 -1.8732 -0.0000 0.0000 0.0000 -52.9835 -63.4925 29.4821 23.4090 -34.5331 -7.3689 -0.0000 -0.0000 1.1682 9.7061 32.4723 5.2469 -7.1250 0.0000 -0.0000 -26.2722 60.8756 -10.5813 -0.0000 0.0000 0.0000 88.6680 -3.7746 6.7751 -50.9344 53.3655 -26.9222 0.0000 -0.0000 -23.4010 -45.7778 33.1074 -29.3031 7.1250 -0.0000 -0.0000 -7.2116 12.7962 -8.6904
